<?xml version="1.0" encoding="UTF-8"?>
<!DOCTYPE svg PUBLIC "-//W3C//DTD SVG 1.1//EN" "http://www.w3.org/Graphics/SVG/1.1/DTD/svg11.dtd">
<svg version="1.1" xmlns="http://www.w3.org/2000/svg" xmlns:xlink="http://www.w3.org/1999/xlink" x="0" y="0" width="100" height="150" viewBox="0, 0, 1289, 1905">
  <defs>
    <clipPath id="Clip_1">
      <path d="M-0,1905 L1288.14,1905 L1288.14,0.54 L-0,0.54 z"/>
    </clipPath>
  </defs>
  <g id="Layer_1">
    <g clip-path="url(#Clip_1)">
      <path d="M933.541,1041.7 C939.457,1042.69 944.32,1043.45 948.88,1045.38 C954.819,1047.88 958.584,1052 959.83,1058.54 C962.294,1071.45 965.158,1084.29 967.544,1097.22 C968.149,1100.51 969.558,1101.85 972.635,1102.91 C1036.56,1124.9 1099.78,1148.72 1161.44,1176.51 C1171.57,1181.07 1181.49,1185.84 1192.18,1189.16 C1225.6,1199.55 1244.18,1223.88 1253.67,1256.39 C1260.52,1279.86 1263.54,1303.96 1265.68,1328.2 C1269.85,1375.49 1270.34,1423.01 1273.86,1470.34 C1277.05,1513.2 1280.43,1556.05 1284.16,1598.86 C1288.28,1646.23 1289.51,1693.6 1286.38,1741.08 C1284.07,1776.15 1282.08,1811.24 1278.66,1846.23 C1276.9,1864.3 1274.94,1882.34 1272.11,1900.28 C1271.51,1904.08 1270.29,1905 1266.53,1904.99 C1205.53,1904.86 1144.53,1904.9 1083.53,1904.9 C895.87,1904.9 708.205,1904.88 520.541,1905 C516.257,1905.01 515.492,1903.79 515.474,1899.77 C515.217,1842.62 514.849,1785.47 514.337,1728.33 C514.059,1697.18 513.464,1666.04 512.996,1634.89 C512.967,1632.95 512.792,1631.01 512.658,1628.56 C500.432,1635.08 488.311,1640.81 475.647,1645.31 C423.663,1663.79 378.949,1651.51 340.265,1613.42 C322.47,1595.9 307.7,1576.02 294.441,1554.97 C270.229,1516.53 247.529,1477.2 225.516,1437.46 C216.029,1420.33 210.388,1402.29 209.629,1382.88 C208.97,1366.04 204.677,1350.56 196.174,1336.01 C191.821,1328.56 188.681,1320.42 184.529,1312.84 C180.783,1306.01 181.416,1299.81 185.763,1293.7 C186.72,1292.35 187.994,1291.42 185.866,1289.72 C160.007,1269.16 137.367,1245.05 112.643,1223.22 C87.379,1200.92 58.541,1184.09 29.52,1167.47 C24.768,1164.75 19.781,1162.43 15.445,1158.99 C-8.495,1140.04 -3.982,1108.1 24.669,1096.63 C13.015,1084.86 6.113,1071.26 12.147,1054.79 C18.403,1037.72 32.942,1033.24 49.925,1033.31 C47.957,1026.55 46.68,1019.9 48.211,1013.07 C51.285,999.368 62.307,990.197 76.699,989.398 C82.555,989.073 88.347,989.487 94.014,991.14 C95.433,991.554 96.599,992.024 97.536,989.885 C105.664,971.333 118.992,964.452 139.007,967.96 C151.202,970.097 161.935,975.656 172.48,981.684 C211.832,1004.18 254.098,1038.28 293.906,1079.59 C297.276,1072.92 300.42,1066.26 303.957,1059.81 C310.001,1048.78 317.071,1038.53 327.43,1031 C334.321,1025.99 341.853,1022.66 350.561,1023.07 C364.932,1023.73 375.798,1034.39 378.66,1050.27 C381.026,1063.39 378.801,1076.02 373.035,1087.68 C365.977,1101.96 363.564,1117.08 362.802,1132.61 C361.914,1150.73 361.541,1168.89 360.757,1187.02 C360.52,1192.5 359.731,1197.95 359.049,1203.4 C358.805,1205.35 358.343,1206.89 361.132,1207.37 C366.405,1208.28 369.903,1211.71 372.746,1216.06 C378.676,1225.15 383.509,1234.8 387.824,1244.73 C388.542,1246.39 388.979,1248.21 390.504,1249.45 C404.347,1260.64 413.913,1275.31 423.269,1290.09 C432.613,1304.86 440.941,1320.22 448.801,1335.82 C449.294,1336.8 449.831,1337.76 450.72,1339.43 C451.689,1336.78 452.358,1334.82 453.115,1332.89 C457.481,1321.78 463.176,1311.24 471.805,1303.06 C479.447,1295.82 483.069,1287.3 485.726,1277.47 C493.487,1248.73 504.372,1221.26 521.802,1196.82 C535.202,1178.03 552.096,1164.39 574.771,1157.43 C600.944,1149.39 626.498,1139.35 652.795,1131.61 C655.227,1130.89 655.938,1129.75 655.999,1127.45 C656.157,1121.46 656.369,1115.47 656.778,1109.49 C656.964,1106.77 656.154,1105.78 653.341,1105.46 C609.956,1100.48 568.739,1087.97 529.84,1068.32 C433.767,1019.78 374.052,942.578 350.833,837.631 C334.921,765.711 340.056,694.286 359.211,623.605 C374.674,566.549 392.482,510.288 417.425,456.534 C418.731,453.72 417.379,453.17 415.425,452.273 C392.232,441.631 374.958,423.999 359.24,404.554 C357.465,402.358 355.728,400.077 354.35,397.623 C343.395,378.102 335.155,357.378 328.978,335.958 C324.77,321.368 327.863,306.516 330.706,291.92 C340.34,242.451 360.146,197.466 390.187,156.983 C411.263,128.581 439.783,109.628 470.494,93.395 C486.119,85.135 502.853,79.651 519.296,73.409 C531.363,68.829 542.234,61.362 555.192,58.847 C564.821,56.977 574.347,54.576 583.923,52.43 C590.59,50.936 597.28,49.282 603.292,46.064 C621.834,36.138 641.93,32.266 662.495,29.484 C699.283,24.508 735.958,18.707 772.44,11.81 C799.922,6.615 827.276,0.814 855.44,0.565 C867.139,0.461 878.764,0.569 890.213,3.232 C907.855,7.336 925.975,6.766 943.821,8.832 C965.054,11.29 985.427,17.739 1006.1,22.785 C1057.85,35.413 1102.43,61.931 1144.39,93.612 C1147.45,95.92 1150.4,98.377 1153.56,100.54 C1196.17,129.779 1225.14,170.472 1249.32,215.074 C1255.1,225.724 1259.49,237.112 1264.77,248.04 C1274.47,268.114 1274.88,289.816 1276.74,311.392 C1278.48,331.624 1270.63,349.595 1265.37,368.247 C1258.7,391.951 1245.64,411.715 1228.29,428.893 C1223.31,433.82 1218.35,438.872 1215.47,445.369 C1207.21,464.013 1193.55,477.716 1176.52,488.34 C1173.48,490.234 1172.48,492.389 1172.6,496.024 C1173.19,515 1173.86,533.984 1173.09,552.974 C1173.03,554.459 1173.16,556.159 1172.51,557.381 C1165.95,569.577 1166.17,583.086 1164.89,596.274 C1162.77,618.327 1160.89,640.404 1158.93,662.473 C1158.71,664.912 1158.4,667.102 1160.56,669.309 C1178.75,687.901 1184.58,710.671 1181.96,735.887 C1179.2,762.518 1167.41,784.75 1147.63,802.712 C1145.44,804.698 1144.71,806.716 1144.55,809.576 C1141.57,861.55 1124.83,907.872 1087.85,945.639 C1061.12,972.938 1028.85,991.492 992.755,1003.15 C979.822,1007.33 968.4,1012.73 958.703,1022.41 C951.485,1029.61 942.881,1035.35 933.541,1041.7" fill="#2F201B"/>
    </g>
    <path d="M539.862,1312.55 C534.276,1343.69 528.692,1374.83 524.182,1406.16 C519.126,1441.28 514.849,1476.49 512.836,1511.94 C512.695,1514.43 512.762,1516.93 512.733,1519.42 C514.016,1526.52 512.199,1533.6 512.624,1540.71 C512.931,1545.84 512.685,1551 512.684,1556.13 C512.902,1567.85 511.971,1579.55 512.057,1591.71 C508.854,1590.33 509.857,1587.77 508.95,1585.46 C486.526,1609.55 460.013,1627.11 429.122,1637.88 C428.361,1637.87 429.149,1638.84 428.954,1638.2 C428.94,1638.15 428.997,1638.12 429.111,1638.07 C432.756,1636.48 436.56,1637.06 440.32,1637.33 C441.416,1637.41 442.716,1637.67 442.665,1639.3 C414.699,1643.4 389.993,1635.3 367.617,1618.95 C345.37,1602.7 328.142,1581.72 313.201,1558.91 C284.195,1514.62 257.704,1468.83 232.831,1422.11 C226.112,1409.48 224.193,1395.62 222.792,1381.66 C222.327,1377.02 221.949,1372.37 221.57,1367.72 C220.861,1359.03 219.047,1350.8 214.712,1342.96 C208.755,1332.2 204.054,1320.75 198.023,1310.03 C194.998,1304.66 195.972,1301.14 200.067,1297.53 C201.047,1296.66 202.018,1295.79 203.362,1294.59 C203.874,1297.97 208.406,1300.91 202.854,1303.69 C201.88,1304.17 201.831,1305.65 202.495,1306.85 C203.529,1308.72 205.132,1308.65 206.828,1308.23 C214.583,1306.31 222.394,1304.58 230.071,1302.39 C267.412,1291.73 303.002,1277.26 334.381,1253.79 C342.67,1247.59 350.448,1240.81 357.357,1233.08 C358.74,1231.53 360.996,1230.05 359.111,1227.59 C357.074,1224.92 355.081,1226.71 353.214,1228.45 C351.806,1225.76 350.589,1223.43 349.354,1221.08 C356.514,1218.77 358.976,1219.59 362.701,1225.41 C369.001,1235.27 373.677,1245.92 378.286,1256.63 C379.137,1258.6 378.481,1259.75 377.669,1261.16 C374.493,1266.67 370.412,1271.5 366.187,1276.22 C365.046,1277.5 363.974,1278.83 363.387,1280.58 C368.748,1276.48 372.964,1271.34 376.794,1265.88 C381.716,1258.87 381.766,1258.73 387.773,1264.91 C402.186,1279.74 412.466,1297.49 422.83,1315.16 C433.777,1333.81 443.474,1353.15 453.529,1372.29 C454.21,1373.59 454.317,1376.06 456.613,1375.43 C458.501,1374.91 458.37,1372.81 458.522,1371.17 C461.029,1344.23 469.636,1319.89 488.866,1300.09 C490.117,1298.8 490.359,1297.19 490.796,1295.59 C499.098,1265.08 510.225,1235.79 528.165,1209.46 C541.629,1189.71 559.037,1175.8 582.524,1168.86 C607.861,1161.38 632.462,1151.47 657.881,1144.11 C659.289,1143.7 660.709,1143.33 662.106,1142.95 C662.307,1143.59 662.556,1143.94 662.484,1144.21 C660.058,1153.19 664.85,1156.78 672.667,1159.25 C681.199,1161.93 689.384,1165.72 697.709,1169.06 C697.946,1169.15 698.199,1169.54 698.2,1169.8 C698.201,1170.03 697.871,1170.26 697.687,1170.5 C696.249,1171.73 694.566,1171.31 692.915,1171.24 C678.796,1170.67 664.715,1169.45 650.603,1168.78 C645.617,1168.54 640.545,1168.3 635.726,1167.4 C627.682,1165.9 620.591,1167.89 613.498,1171.03 C591.692,1180.67 576.932,1196.74 568.004,1218.88 C561.551,1234.88 555.404,1250.99 549.169,1267.07 C548.868,1267.67 550.251,1267.15 549.588,1267.22 C549.404,1267.23 549.364,1267.08 549.482,1266.75 C557.756,1243.87 567.304,1221.55 578.453,1199.91 C580.887,1195.19 584.727,1191.75 588.632,1188.38 C590.576,1186.71 592.025,1186.61 592.348,1190.01 C593.089,1197.83 598.092,1200.62 605.277,1197.53 C614.464,1193.57 617.024,1184.98 611.336,1176.68 C609.751,1174.37 610.36,1173.04 612.561,1171.95 C619.356,1168.57 626.173,1166.47 634.139,1167.5 C644.497,1168.84 654.969,1169.71 665.437,1170.01 C672.588,1170.22 679.67,1171.55 686.854,1171.15 C688.159,1171.08 689.543,1171.29 690.41,1172.56 C695.966,1173.72 701.597,1173.56 707.222,1173.52 C719.88,1174.17 732.538,1174.21 745.195,1173.51 C763.089,1172.17 780.982,1170.84 798.876,1169.51 C799.78,1168.32 801.103,1168.14 802.445,1168.08 C817.01,1167.44 831.541,1166.13 846.035,1164.76 C869.908,1162.51 893.937,1161.21 917.402,1155.59 C923.101,1154.22 928.971,1154.83 934.772,1155.24 C948.704,1158.38 961.128,1164.47 971.298,1174.63 C980.34,1183.66 986.197,1194.05 985.117,1207.52 C984.639,1213.46 984.866,1219.49 985.214,1225.48 C983.955,1240.72 983.466,1256.01 982.439,1271.26 C981.569,1284.18 980.945,1297.13 980.128,1310.05 C979.187,1324.95 978.835,1339.89 977.326,1354.76 C976.656,1361.35 976.59,1368.05 976.442,1374.64 C976.197,1385.61 975.393,1396.56 975.002,1407.51 C974.398,1424.44 973.585,1441.36 972.967,1458.29 C972.325,1475.89 971.868,1493.5 971.098,1511.09 C969.815,1540.39 970.717,1569.7 969.91,1598.98 C969.663,1607.94 968.674,1616.95 969.294,1625.88 C970.973,1650 969.388,1674.14 970.287,1698.25 C971.031,1718.19 971.483,1738.14 972.336,1758.07 C973.124,1776.47 974.01,1794.89 975.292,1813.26 C976.573,1831.62 977.675,1850 979.392,1868.32 C979.808,1872.76 979.676,1877.29 980.641,1881.69 C980.934,1883.02 980.792,1884.35 979.752,1885.41 C980.788,1890.4 978.758,1891.45 973.833,1891.44 C827.268,1891.29 680.702,1891.29 534.136,1891.45 C529.489,1891.45 528.741,1890.07 528.719,1885.93 C528.402,1825.32 527.946,1764.72 527.47,1704.11 C527.423,1698.15 527.021,1692.19 526.784,1686.23 C525.7,1681.65 526.092,1677.04 526.604,1672.43 C527.089,1653.46 526.714,1634.47 526.031,1615.52 C523.415,1542.88 524.911,1470.38 532.417,1398.04 C535.269,1370.55 538.071,1343.05 540.896,1315.56 C540.85,1311.04 541.359,1306.59 542.418,1302.19 C541.637,1305.66 541.614,1309.33 539.862,1312.55" fill="#FEFEFE"/>
    <path d="M714.757,1169.8 C715.248,1157.62 714.251,1145.54 712.348,1133.51 C711.376,1127.37 708.175,1122.8 703.258,1119.17 C696.931,1114.5 690.123,1110.66 682.969,1107.47 C680.045,1106.17 678.261,1104.79 679.003,1101.22 C680.03,1096.26 678.083,1094.29 672.732,1093.89 C605.399,1088.84 543.746,1067.43 489.099,1027.61 C417.737,975.601 376.346,904.75 360.748,818.405 C350.96,764.219 353.117,710.109 365.151,656.612 C379.725,591.822 399.946,528.747 426.866,467.938 C430.434,459.878 434.672,452.117 438.427,444.136 C439.749,441.325 441.579,439.909 444.68,439.221 C474.71,432.559 505.168,429.478 535.83,428.108 C588.007,425.778 640.057,428.621 692.038,432.634 C771.394,438.76 849.919,450.448 927.316,469.268 C939.209,472.16 939.484,472.102 940.679,484.348 C945.941,538.246 966.471,586.373 996.306,630.858 C1001.07,637.96 1002.75,644.87 1002.35,653.134 C1001.59,668.595 1001.62,684.094 1001.05,699.567 C1000.94,702.548 1001.82,703.183 1004.5,703.364 C1014.97,704.07 1025.43,704.957 1035.88,705.856 C1037.46,705.991 1039.33,705.494 1040.47,707.161 C1043.67,711.84 1045.53,709.045 1047.27,705.943 C1051.78,697.892 1057.3,690.62 1064.03,684.299 C1076.01,673.049 1089.89,665.448 1106.37,663.59 C1133.47,660.535 1156.93,676.089 1165.56,702.463 C1179.48,744.961 1151.98,797.069 1109.04,809.591 C1094.9,813.716 1081.08,813.211 1067.7,806.649 C1065.67,805.649 1063.55,804.601 1062.06,807.187 C1060.49,809.903 1062.59,811.218 1064.62,812.077 C1066.66,812.937 1067.32,813.891 1066.65,816.196 C1050.05,873.659 1026.78,927.796 988.018,974.229 C964.611,1002.27 937.084,1025.41 905.303,1043.41 C901.706,1045.45 900.42,1047.79 900.758,1051.75 C901.154,1056.38 900.614,1061.14 901.34,1065.7 C902.087,1070.39 899.958,1071.89 896.103,1073.5 C850.799,1092.41 804.203,1107.2 756.219,1117.55 C751.82,1118.5 749.323,1120.5 747.572,1124.59 C741.974,1137.67 739.895,1151.41 738.923,1165.44 C738.798,1167.24 740.112,1170.07 736.669,1170.55 C729.83,1171.32 722.97,1170.71 716.121,1170.87 C715.366,1170.89 714.914,1170.54 714.757,1169.8" fill="#FBE4DB"/>
    <path d="M1051.32,499.581 C1050.77,499.43 1050.22,499.279 1049.67,499.129 C1049.22,498.989 1048.89,498.584 1048.41,498.525 C1029.92,492.485 1011.54,486.111 992.934,480.466 C931.482,461.82 868.805,448.671 805.32,439.195 C737.365,429.051 669.02,423.487 600.367,421.528 C556.339,420.272 512.424,421.508 468.818,428.38 C460.453,429.699 452.14,431.346 442.897,433.004 C466.781,359.029 494.456,287.109 535.596,221.042 C531.635,222.517 530.736,223.26 527.869,227.671 C503.135,265.723 482.99,306.199 464.716,347.645 C452.229,375.967 440.598,404.638 430.543,433.929 C428.341,440.343 424.551,441.929 418.651,438.685 C389.209,422.498 367.14,399.649 354.978,367.897 C353.193,363.237 351.691,358.419 349.417,354.006 C339.861,335.464 339.376,316.328 343.401,296.177 C351.759,254.338 367.641,215.807 390.443,179.803 C411.75,146.16 441.947,123.299 476.648,105.345 C491.481,97.671 507.172,92.23 522.775,86.509 C524.491,85.88 526.348,85.468 527.883,84.535 C545.763,73.663 565.969,70.008 585.968,65.728 C595.291,63.732 604.362,60.939 612.779,56.48 C629.49,47.625 647.772,45.206 666.103,42.601 C702.871,37.377 739.594,31.797 776.065,24.774 C803.878,19.418 831.606,13.85 860.123,13.898 C867.986,13.912 875.831,13.94 883.486,15.628 C900.324,19.34 917.422,20.338 934.548,21.447 C957.811,22.955 979.896,30.274 1002.37,35.694 C1050.37,47.267 1091.88,71.627 1131.17,100.451 C1142.44,108.722 1153.64,117.094 1164.76,125.574 C1170.72,130.119 1176.26,135.164 1180.79,141.213 C1179.42,151.972 1178.73,162.82 1176.77,173.498 C1176.19,176.652 1176.36,180.185 1173.52,182.57 C1171.46,182.879 1170.63,181.247 1169.58,180.029 C1148.06,155.149 1122.08,136.09 1092.99,121.016 C1049.42,98.439 1003.25,83.249 955.53,72.43 C944.179,69.856 932.747,67.712 921.294,65.642 C911.719,64.166 902.179,62.491 892.55,61.4 C886.618,60.679 880.732,59.585 874.751,59.278 C873.342,58.737 871.814,59.055 870.384,58.666 C855.187,57.279 839.965,56.33 824.716,55.775 C808.728,55.148 792.741,55.213 776.756,55.742 C762.219,56.373 747.691,57.153 733.211,58.607 C731.586,59.069 729.845,58.767 728.236,59.335 C713.973,60.31 699.828,62.407 685.723,64.584 C664.375,67.879 643.171,72.065 622.229,77.41 C585.349,86.823 549.539,99.201 515.72,116.872 C486.199,132.297 459.12,151.119 435.919,175.198 C428.068,183.345 420.733,191.945 415.906,199.06 C438.442,167.63 469.934,142.515 505.76,122.395 C532.286,107.497 560.287,96.134 589.226,86.9 C615.419,78.542 642.131,72.392 669.148,67.466 C689.414,63.772 709.833,61.174 730.308,58.942 C732.023,59.11 733.646,58.428 735.344,58.427 C752.142,56.851 768.977,55.983 785.832,55.413 C793.724,55.414 801.614,55.414 809.503,55.413 C828.765,55.492 847.961,56.854 867.143,58.417 C869.237,58.295 871.25,59.092 873.344,58.977 C878.696,59.719 884.086,60.177 889.431,60.987 C899.383,62.219 909.299,63.709 919.181,65.393 C972.74,74.399 1024.62,89.116 1074.09,111.724 C1099.29,123.239 1123.2,137.044 1144.48,154.967 C1153.65,162.692 1161.85,171.479 1169.8,180.459 C1172.5,183.506 1176.5,185.618 1177.19,190.205 C1177.14,190.544 1176.93,191.095 1176.83,191.06 C1172.27,189.458 1172.61,193.083 1171.97,195.603 C1167.36,213.868 1161.04,231.535 1153.41,248.743 C1152.74,250.256 1151.8,251.676 1152.01,253.446 C1151.94,255.696 1150.42,257.125 1148.86,258.309 C1135.97,268.096 1124.87,279.814 1116.21,288.377 C1122.24,282.171 1131.24,273.375 1140.64,265.001 C1142.84,263.049 1144.66,260.521 1147.83,259.945 C1149.5,260.689 1148.88,261.862 1148.18,262.773 C1141.4,271.671 1137.26,282.093 1131.48,291.569 C1127.36,298.339 1123.53,305.291 1119.03,311.832 C1116.79,312.001 1116.11,309.765 1114.52,308.93 C1114.14,308.68 1113.74,308.438 1113.32,308.237 C1113.67,308.531 1114.09,308.722 1114.47,309.004 C1115.96,310.504 1118.3,311.362 1118.11,314.039 C1113.93,319.838 1110.44,326.166 1105.92,331.658 C1101.57,336.943 1100.43,342.916 1100.1,349.236 C1099.19,366.622 1095.74,383.572 1090.91,400.193 C1081.58,432.261 1067.96,462.594 1052.52,492.142 C1051.5,494.097 1050.37,495.895 1052.32,498.027 C1053.07,498.847 1053.04,499.956 1051.32,499.581" fill="#FEFEFE"/>
    <path d="M984.701,1891.2 C983.744,1891.56 983.293,1890.83 982.751,1890.3 C981.122,1886.8 980.549,1882.92 980.365,1879.24 C979.628,1864.5 977.878,1849.84 977.054,1835.1 C976.137,1818.7 974.886,1802.32 974.043,1785.9 C973.251,1770.48 972.788,1755.04 972.048,1739.63 C970.546,1708.37 971.057,1677.08 969.932,1645.85 C968.602,1608.88 970.672,1571.99 970.46,1535.06 C970.325,1511.64 971.584,1488.18 972.348,1464.75 C973.101,1441.68 974.213,1418.61 975.308,1395.55 C976.196,1376.82 977.23,1358.09 978.333,1339.37 C979.642,1317.17 980.913,1294.97 982.326,1272.77 C983.54,1253.7 985.179,1234.65 986.492,1215.59 C986.893,1209.77 987.776,1204.03 986.656,1198.25 C985.847,1189.49 981.088,1182.64 975.365,1176.55 C964.984,1165.52 952.522,1157.93 937.289,1155.5 C930.355,1154.58 923.419,1154.22 916.546,1155.74 C902.463,1158.85 888.168,1160.38 873.86,1161.97 C860.878,1163.42 847.853,1164.34 834.859,1165.61 C825.653,1166.51 816.392,1166.95 807.176,1167.84 C804.035,1167.86 800.875,1167.49 797.763,1168.26 C796.316,1168.39 794.861,1168.54 793.69,1167.38 C794.82,1165.6 796.731,1165.73 798.477,1165.39 C850.026,1155.25 900.54,1141.74 948.32,1119.33 C948.47,1119.26 948.657,1119.24 948.779,1119.14 C956.819,1112.52 965.04,1113.96 974.22,1117.21 C1037.72,1139.65 1100.59,1163.65 1161.9,1191.56 C1169.75,1195.13 1177.44,1198.73 1185.79,1201.13 C1212.96,1208.95 1229.73,1227.46 1238.63,1253.78 C1246.31,1276.52 1249.4,1300.11 1251.74,1323.83 C1256.19,1369.09 1256.86,1414.58 1259.73,1459.94 C1262.53,1503.99 1266.1,1547.97 1270.15,1591.91 C1275.02,1644.76 1276.14,1697.6 1272.45,1750.57 C1269.69,1790.27 1267.22,1829.99 1262.69,1869.55 C1261.99,1875.67 1261.08,1881.77 1260.47,1887.9 C1260.21,1890.61 1259.14,1891.39 1256.41,1891.38 C1189.25,1891.3 1122.1,1891.27 1054.95,1891.42 C1050.49,1891.43 1051.65,1888.85 1051.73,1886.66 C1052.89,1854.05 1054.11,1821.45 1055.31,1788.84 C1056,1770.38 1057.42,1751.9 1057.15,1733.45 C1056.9,1716.5 1054.85,1699.58 1053.54,1682.64 C1051.55,1657.08 1049.51,1631.51 1047.48,1605.95 C1047.4,1604.97 1047.08,1604.02 1046.88,1603.05 C1045.7,1601.38 1046.3,1599.34 1045.72,1597.55 C1045.55,1595.11 1046,1592.64 1045.29,1590.23 C1045.22,1588.32 1044.09,1586.6 1044.31,1584.64 C1044.33,1582.51 1044.46,1580.37 1043.72,1578.31 C1043.36,1576.71 1043.35,1575.09 1043.32,1573.47 C1043.3,1571.06 1043.54,1568.62 1042.7,1566.28 C1042.34,1564.64 1042.35,1562.98 1042.3,1561.31 C1042.3,1558.53 1042.53,1555.72 1041.6,1553.02 C1040.5,1537.79 1038.98,1522.59 1038.44,1510.47 C1039.02,1515.14 1039.24,1522.96 1039.15,1530.8 C1039.07,1533.14 1039.18,1535.47 1039.07,1537.8 C1038.93,1540.63 1039.69,1544.29 1034.6,1542.99 C1033.86,1542.8 1033.09,1543.6 1032.43,1544.1 C1023.67,1550.78 1018.08,1558.78 1018.15,1570.6 C1018.42,1620.4 1018.65,1670.22 1018.11,1720.02 C1017.81,1747.47 1017.3,1774.94 1016.1,1802.37 C1014.92,1829.3 1013.79,1856.23 1011.68,1883.1 C1011.43,1886.31 1012.52,1887.79 1015.75,1887.81 C1022.91,1887.84 1030.08,1887.77 1037.24,1887.84 C1040.59,1887.87 1042.1,1886.45 1042.16,1883.1 C1042.19,1881.17 1042.09,1879.04 1044.91,1877.08 C1045.33,1881.59 1045.5,1885.61 1044.89,1889.55 C1044.54,1891.8 1042.13,1890.85 1040.63,1890.85 C1023.81,1890.92 1006.98,1890.89 990.158,1890.91 C988.339,1890.91 986.493,1890.62 984.701,1891.2" fill="#FEFEFE"/>
    <path d="M365.981,1059.15 C365.918,1068.25 364.142,1075.93 360.533,1082.93 C353.01,1097.52 350.749,1113.23 349.584,1129.26 C348.013,1150.85 349.101,1172.55 346.781,1194.11 C345.944,1201.88 345.119,1209.69 341.456,1216.79 C340.467,1218.71 341.813,1219.91 342.465,1221.32 C344.329,1225.35 348.331,1229.73 347.661,1233.24 C346.856,1237.46 341.359,1240.15 337.649,1243.22 C311.196,1265.07 280.675,1279.25 248.486,1290.22 C237.767,1293.88 226.881,1296.98 215.904,1299.78 C213.386,1300.42 211.753,1300.53 211.175,1297.58 C210.04,1291.8 206.185,1288.29 201.579,1284.94 C179.555,1268.9 160.36,1249.59 140.964,1230.64 C108.203,1198.64 70.188,1174.36 30.321,1152.59 C23.551,1148.89 17.822,1144.28 15.098,1136.79 C10.744,1124.82 16.758,1113.26 29.439,1109.39 C39.425,1106.34 49.233,1107.85 58.843,1111.18 C69.972,1115.04 79.587,1121.68 89.313,1128.1 C99.034,1134.52 108.853,1140.8 118.507,1147.31 C121.164,1149.11 122.863,1148.83 125.33,1146.81 C144.78,1130.87 164.326,1115.04 183.942,1099.31 C193.43,1091.69 203.427,1084.79 214.112,1078.92 C216.139,1077.8 218.718,1076.72 216.896,1073.69 C215.322,1071.07 213.282,1072.41 211.257,1073.36 C208.293,1074.75 205.604,1078.34 202.699,1077.65 C199.846,1076.97 197.631,1073.58 195.148,1071.37 C169.901,1048.86 144.501,1026.57 115.723,1008.5 C107.64,1003.43 108.183,990.235 116.432,984.467 C121.922,980.629 128.164,980.034 134.619,980.847 C143.882,982.014 152.318,985.61 160.215,990.321 C207.054,1018.26 250.958,1049.88 286.366,1092.01 C287.865,1093.8 289.276,1095.65 290.699,1097.5 C293.901,1101.66 293.761,1104.7 289.794,1108.08 C273.879,1121.68 261.77,1138.3 251.21,1156.17 C250.619,1157.18 250.068,1158.2 249.547,1159.24 C248.73,1160.87 249.297,1162.22 250.686,1163.13 C252.124,1164.07 253.612,1163.85 254.65,1162.42 C255.626,1161.08 256.44,1159.62 257.292,1158.2 C267.595,1140.94 279.413,1124.91 295.05,1112.02 C296.744,1110.63 297.354,1108.88 298.017,1106.99 C303.824,1090.48 310.426,1074.32 319.779,1059.43 C323.877,1052.9 328.582,1046.85 334.878,1042.27 C340.973,1037.84 347.526,1034.13 355.214,1037.7 C362.914,1041.27 364.952,1048.57 365.828,1056.29 C365.978,1057.61 365.971,1058.95 365.981,1059.15" fill="#FBE4DB"/>
    <path d="M1051.32,499.581 C1047.9,495.75 1050.83,492.888 1052.53,489.531 C1063.29,468.371 1073.26,446.85 1081.51,424.571 C1087.85,407.454 1092.82,389.965 1096.03,371.964 C1097.84,361.86 1098.5,351.647 1099.67,341.481 C1099.83,340.014 1099.56,338.523 1100.49,337.161 C1105.47,329.921 1110.39,322.633 1115.39,315.406 C1115.93,314.626 1116.89,314.137 1117.66,313.513 C1120,312.639 1120.87,314.725 1122.06,315.873 C1127.81,321.397 1133.57,326.913 1138.48,333.233 C1133.8,325.506 1126.25,320.522 1120.31,313.996 C1119.65,313.264 1117.95,313.022 1118.79,311.378 C1120.77,305.178 1125.21,300.362 1128.18,294.701 C1132.77,285.91 1138.06,277.471 1142.41,268.565 C1143.87,265.565 1147.63,264.16 1147.54,260.351 C1147.35,258.316 1149.06,257.466 1150.24,256.497 C1158.61,249.603 1167.08,242.834 1176.79,237.848 C1168.83,241.659 1162.03,247.206 1155.03,252.444 C1154.39,252.901 1153.57,252.935 1152.9,253.317 C1152.59,253.508 1152.26,253.65 1151.91,253.746 C1148.88,252.822 1150.91,251.171 1151.47,249.939 C1159.77,231.649 1166.35,212.767 1171.3,193.299 C1171.73,191.603 1171.01,189.542 1172.65,188.206 C1174.56,187.886 1174.21,191.954 1176.76,190.229 C1180.87,191.39 1182.29,195.333 1184.5,198.216 C1207.85,228.783 1226.83,261.782 1239.14,298.392 C1239.27,298.785 1239.42,298.995 1239.51,299.014 C1228.84,267.479 1213.27,238.44 1194.2,211.201 C1188,202.344 1181.32,193.863 1174.4,185.567 C1173.66,184.683 1171.97,184.114 1172.92,182.394 C1176.33,174.03 1176.55,165.067 1177.58,156.292 C1178.06,152.225 1179.39,148.158 1178.64,144.006 C1178.29,142.046 1180.11,142.164 1180.79,141.213 C1203.81,168.21 1226.55,195.399 1240.84,228.421 C1243.61,234.833 1246.44,241.247 1249.71,247.413 C1258.59,264.159 1261.78,282.239 1262.59,300.867 C1264.55,345.52 1251.06,384.711 1220.36,417.479 C1212.08,426.309 1204.58,435.519 1199.47,446.505 C1193.28,459.802 1181.54,468.012 1170.91,478.713 C1169.83,432.951 1158.17,390.539 1142.51,349.009 C1146.13,365.193 1149.03,381.501 1151.35,397.904 C1153.73,414.73 1155.6,431.622 1156.67,448.583 C1157.73,465.362 1158.84,482.15 1159.29,498.951 C1159.74,515.691 1159.39,532.452 1159.39,549.487 C1150.67,544.781 1142.17,540 1133.49,535.543 C1108.32,522.603 1082.28,511.601 1055.83,501.566 C1054.29,500.984 1052.82,500.246 1051.32,499.581" fill="#F0F5F8"/>
    <path d="M984.701,1891.2 C986.293,1889.83 988.213,1890.43 989.984,1890.42 C1006.32,1890.37 1022.65,1890.2 1038.98,1890.5 C1043.71,1890.59 1045.25,1889.08 1044.7,1884.6 C1044.46,1882.66 1044.66,1880.66 1043.68,1878.63 C1043.68,1881.08 1043.58,1883.54 1043.71,1885.98 C1043.85,1888.62 1042.68,1889.46 1040.15,1889.44 C1031.15,1889.35 1022.15,1889.32 1013.16,1889.46 C1010.05,1889.5 1009.51,1887.96 1009.69,1885.42 C1011.02,1866.43 1012.39,1847.43 1013.61,1828.43 C1014.15,1819.99 1014.25,1811.48 1014.4,1803.06 C1014.68,1786.6 1015.44,1770.15 1015.84,1753.7 C1017.36,1691.41 1016.34,1629.12 1016.68,1566.84 C1016.74,1556.65 1022.93,1550.05 1029.91,1543.88 C1030.9,1543.01 1032.08,1542.35 1033.09,1541.51 C1034.91,1539.98 1036.57,1539.03 1037.78,1542.22 C1037.78,1538.22 1037.78,1534.23 1037.78,1530.23 C1040.15,1530.85 1040.06,1532.89 1040.1,1534.64 C1040.43,1547.05 1041.15,1559.44 1042.1,1571.82 C1042.21,1575.01 1041.67,1578.24 1042.69,1581.38 C1043.04,1583.67 1043.33,1585.96 1042.85,1588.27 C1042.65,1591.36 1042.41,1594.45 1043.07,1597.53 C1043.32,1599.47 1042.94,1601.47 1043.58,1603.38 C1043.94,1606.7 1043.3,1610.06 1044.02,1613.36 C1044.08,1615.24 1044.62,1617.06 1044.67,1618.94 C1044.73,1621.45 1044.58,1623.97 1044.78,1626.49 C1044.9,1626.94 1045.01,1627.41 1045.1,1627.88 C1044.55,1628.7 1044.82,1629.51 1045.17,1630.32 C1045.05,1631.58 1045.53,1632.76 1045.65,1633.99 C1045.87,1637.18 1045.3,1640.4 1046.07,1643.56 C1046.09,1645.18 1046.53,1646.83 1045.74,1648.4 C1046.98,1668.14 1047.81,1687.93 1049.58,1707.63 C1051.99,1734.42 1049.89,1761.13 1049.03,1787.86 C1047.99,1820.43 1046.68,1852.99 1045.72,1885.56 C1045.58,1890.12 1044.49,1891.57 1039.6,1891.46 C1021.31,1891.06 1003,1891.24 984.701,1891.2" fill="#F0F5F8"/>
    <path d="M931.447,1061.99 C922.817,1063.55 915.353,1065.69 908.038,1068.2 C907.861,1067.88 907.735,1067.76 907.724,1067.62 C906.529,1053.89 906.529,1053.91 920.279,1054.27 C926.787,1054.44 933.231,1055.04 939.623,1056.35 C943.962,1057.24 946.442,1059.15 947.289,1064 C949.606,1077.28 952.403,1090.48 955.349,1103.64 C956.171,1107.31 955.103,1108.92 951.952,1110.52 C925.911,1123.77 898.512,1133.42 870.557,1141.64 C830.549,1153.4 789.794,1161.65 748.563,1167.69 C746.734,1167.96 744.894,1168.95 745.134,1165.63 C746.049,1152.96 747.803,1140.49 752.673,1128.61 C753.932,1125.54 755.791,1124.06 759.097,1123.33 C816.157,1110.81 871.218,1092.31 924.275,1067.85 C926.837,1066.66 929.321,1065.46 931.447,1061.99" fill="#FEFEFE"/>
    <path d="M23.481,1067.32 C23.526,1056.46 29.92,1049.28 39.936,1047.4 C49.12,1045.67 57.833,1047.73 66.272,1051.07 C85.603,1058.71 102.734,1070.23 119.646,1082.04 C131.92,1090.6 143.807,1099.72 155.918,1108.52 C158.266,1110.22 159.493,1111.21 156.304,1113.69 C145.676,1121.98 135.227,1130.5 124.946,1139.21 C122.223,1141.52 120.429,1141.35 117.701,1139.48 C107.955,1132.82 98.068,1126.36 88.199,1119.88 C79.712,1114.31 70.587,1109.94 61.574,1105.3 C50.243,1099.46 39.463,1092.33 30.537,1082.97 C26.054,1078.27 23.568,1072.48 23.481,1067.32" fill="#FBE4DB"/>
    <path d="M81.659,1002.61 C90.975,1003.08 100.164,1006.85 108.911,1011.84 C125.453,1021.28 140.351,1033.04 155.059,1045.03 C168.48,1055.98 181.391,1067.52 194.34,1079.01 C196.981,1081.36 196.849,1082.36 194.013,1084.23 C184.698,1090.38 175.997,1097.37 167.414,1104.49 C165.2,1106.32 163.843,1106.84 161.227,1104.82 C137.122,1086.2 112.496,1068.35 85.968,1053.2 C78.952,1049.19 73.005,1043.32 67.723,1037.03 C65.574,1034.48 63.931,1031.57 62.729,1028.43 C57.171,1013.94 65.21,1002.4 81.659,1002.61" fill="#FBE4DB"/>
    <path d="M987.656,1196.42 C989.758,1206.89 988.018,1217.35 987.216,1227.74 C982.706,1286.18 979.454,1344.69 976.587,1403.23 C972.839,1479.74 970.785,1556.3 971.148,1632.92 C971.546,1716.86 974.629,1800.7 982.446,1884.32 C982.631,1886.3 982.653,1888.3 982.751,1890.3 C981.891,1891.22 981.174,1891.37 980.838,1889.9 C980.497,1888.4 981.185,1886.65 979.752,1885.41 C977.431,1866.06 976.212,1846.62 974.893,1827.19 C970.55,1763.21 968.641,1699.16 968.305,1635.04 C967.869,1551.76 970.196,1468.57 974.574,1385.43 C977.401,1331.74 980.703,1278.08 983.792,1224.4 C984.976,1216.17 983.443,1207.79 985.361,1199.54 C986.237,1205.5 986.143,1211.47 986.19,1217.46 C986.194,1211.76 986.236,1206.05 986.162,1200.33 C986.143,1198.82 985.117,1196.94 987.656,1196.42" fill="#050202"/>
    <path d="M708.777,1166.83 C695.645,1161.54 683.221,1156.48 670.746,1151.56 C669.022,1150.88 668.501,1149.97 668.572,1148.24 C669.076,1135.95 669.538,1123.66 669.958,1111.37 C670.041,1108.96 670.934,1108.65 673.004,1109.62 C681.715,1113.72 690.399,1117.81 698.405,1123.26 C703.143,1126.48 705.756,1130.68 706.564,1136.29 C707.987,1146.18 708.698,1156.1 708.777,1166.83" fill="#FEFEFE"/>
    <path d="M442.665,1639.3 C437.85,1637.19 432.653,1639.25 426.462,1637.86 C459.355,1625.94 486.968,1607.94 510.444,1581.8 C510.637,1585.62 510.757,1587.98 510.876,1590.34 C511.201,1590.34 511.526,1590.33 511.851,1590.32 C511.851,1579.25 511.851,1568.17 511.851,1557.1 C514.027,1557.96 513.149,1559.88 513.117,1561.31 C513.027,1565.34 513.695,1569.39 512.747,1573.39 C512.838,1584.19 512.788,1595 513.087,1605.79 C513.213,1610.32 511.2,1613.78 507.758,1615.71 C487.811,1626.89 467.04,1636.02 444.15,1639.34 C443.667,1639.41 443.16,1639.32 442.665,1639.3" fill="#F0F5F8"/>
    <path d="M690.41,1172.56 C671.441,1172.15 652.507,1170.89 633.678,1168.73 C624.931,1167.73 617.837,1170.63 610.452,1174.48 C616.544,1179.17 617.805,1183.87 614.878,1190.16 C611.813,1196.74 604.377,1201.22 598.482,1200.03 C593.261,1198.98 590.878,1195.28 590.966,1187.88 C584.973,1192.38 580.715,1197.84 577.51,1204.26 C567.63,1224.06 559.521,1244.63 550.817,1264.95 C550.107,1266.61 549.406,1268.27 548.624,1270.11 C547.398,1268.93 548.332,1268.14 548.562,1267.38 C555.119,1245.87 563.175,1224.94 573.513,1204.96 C584.189,1184.32 602.25,1172.98 623.603,1166.01 C625.299,1165.45 627.248,1165.2 629.013,1165.4 C651.022,1167.9 673.143,1168.74 695.233,1170.05 C696.057,1170.1 696.869,1170.35 697.687,1170.5 C698.346,1170.94 699.004,1171.39 700.742,1172.56 C696.613,1172.56 693.512,1172.56 690.41,1172.56" fill="#0C0404"/>
    <path d="M793.69,1167.38 C794.901,1167.35 796.111,1167.31 797.322,1167.27 C800.381,1166.28 803.646,1167.66 806.687,1166.45 C829.342,1164.46 852.01,1162.59 874.649,1160.43 C889.025,1159.06 903.359,1157.36 917.469,1154.02 C924.469,1152.36 931.644,1152.55 938.676,1154.46 C938.677,1157 937.123,1157.02 935.276,1156.57 C924.441,1154.61 914.199,1158.28 903.714,1159.8 C868.938,1164.83 833.943,1167.58 798.876,1169.51 C795.905,1169.51 792.934,1169.51 789.364,1169.51 C790.803,1167.86 792.959,1169.02 793.69,1167.38" fill="#0C0504"/>
    <path d="M1044.54,1627.91 L1044.55,1627.95 C1043.66,1625.16 1044.78,1622.2 1043.82,1619.42 C1043.73,1617.57 1043.65,1615.72 1043.56,1613.88 C1042.58,1610.44 1043.86,1606.84 1042.79,1603.42 C1042.71,1601.57 1042.64,1599.73 1042.56,1597.88 C1041.6,1594.78 1042.84,1591.51 1041.8,1588.42 C1041.73,1586.27 1041.66,1584.12 1041.59,1581.97 C1040.61,1578.85 1041.79,1575.55 1040.84,1572.42 C1040.06,1560.15 1039.3,1547.87 1038.48,1535.6 C1038.36,1533.8 1038.76,1531.92 1037.78,1530.23 C1037.78,1521.44 1037.78,1512.65 1037.78,1503.86 C1040.46,1520.18 1042.05,1536.58 1042.81,1553.07 C1043.78,1555.78 1042.53,1558.7 1043.58,1561.4 C1043.66,1562.91 1043.75,1564.42 1043.83,1565.93 C1044.69,1568.36 1043.61,1570.98 1044.57,1573.4 C1044.64,1574.88 1044.71,1576.35 1044.78,1577.83 C1045.61,1579.95 1044.72,1582.27 1045.52,1584.4 C1045.62,1586.26 1045.72,1588.12 1045.82,1589.97 C1046.69,1592.39 1045.62,1594.99 1046.54,1597.4 C1046.65,1599.28 1046.77,1601.17 1046.88,1603.05 C1046.74,1605.16 1046.6,1607.28 1046.46,1609.39 C1046.3,1609.39 1046.14,1609.39 1045.98,1609.39 C1045.44,1602.73 1044.9,1596.07 1044.36,1589.42 C1043.08,1598.35 1044.78,1607.17 1045.12,1616.03 C1045.52,1626.26 1047.01,1636.44 1046.61,1646.7 C1046.59,1647.28 1046.04,1647.83 1045.74,1648.4 C1045.67,1646.89 1045.61,1645.37 1045.55,1643.86 C1044.57,1640.43 1045.88,1636.84 1044.78,1633.42 C1044.71,1632.19 1044.64,1630.96 1044.57,1629.74 C1044.31,1629.13 1044.3,1628.52 1044.54,1627.91" fill="#1A110F"/>
    <path d="M512.747,1573.39 C511.979,1567.99 513.084,1562.48 511.851,1557.1 C512.158,1544.54 511.525,1531.96 512.733,1519.42 C513.963,1520.41 513.678,1521.8 513.679,1523.09 C513.692,1538.63 513.691,1554.17 513.677,1569.71 C513.676,1571 513.969,1572.4 512.747,1573.39" fill="#030000"/>
    <path d="M526.604,1672.43 C527.277,1677.03 526.974,1681.63 526.784,1686.23 C526.784,1700.94 526.784,1715.64 526.784,1730.35 C526.418,1730.35 526.051,1730.35 525.685,1730.35 C525.685,1715.6 525.565,1700.86 525.757,1686.12 C525.816,1681.57 524.598,1676.88 526.604,1672.43" fill="#030000"/>
    <path d="M745.195,1173.51 C732.539,1174.73 719.883,1174.63 707.224,1173.52 C719.88,1173.52 732.538,1173.51 745.195,1173.51" fill="#302A27"/>
    <path d="M539.862,1312.55 C540.019,1308.79 541.023,1305.21 542.318,1301.66 C542.665,1306.38 542.216,1311.01 540.896,1315.56 C540.468,1314.59 541.017,1313.27 539.862,1312.55" fill="#938E8D"/>
    <path d="M714.757,1169.8 C722.007,1171.63 729.381,1169.85 736.669,1170.55 C729.324,1171.5 721.963,1172.92 714.757,1169.8" fill="#302A27"/>
    <path d="M1048.41,498.525 C1048.83,498.727 1049.25,498.928 1049.67,499.129 C1049.25,498.928 1048.83,498.727 1048.41,498.525" fill="#F0F5F8"/>
    <path d="M935.276,1156.57 C936.68,1156.31 938.075,1156.03 938.676,1154.46 C959.649,1158.91 975.528,1170.25 985.575,1189.35 C986.708,1191.51 987.761,1193.83 987.656,1196.42 C985.573,1200.83 987.11,1205.49 986.73,1210.02 C986.5,1212.77 986.688,1215.56 985.71,1218.34 C985.71,1212.38 985.71,1206.42 985.71,1200.46 C985.385,1200.46 985.061,1200.47 984.736,1200.47 C984.736,1206.72 984.786,1212.97 984.704,1219.22 C984.681,1220.97 985.326,1222.9 983.792,1224.4 C983.843,1219.09 983.621,1213.75 983.999,1208.46 C984.999,1194.5 978.847,1183.76 969.168,1174.54 C959.558,1165.39 948.065,1159.75 935.276,1156.57" fill="#2A1D18"/>
    <path d="M928.118,1375.31 C936.982,1375.31 943.919,1382.3 943.834,1391.14 C943.75,1400.03 936.851,1406.71 927.841,1406.62 C919.15,1406.53 912.395,1399.76 912.358,1391.11 C912.32,1382.27 919.265,1375.31 928.118,1375.31" fill="#0F0605"/>
    <path d="M920.318,1775.37 C929.137,1775.44 936.039,1782.51 935.916,1791.35 C935.797,1799.87 928.79,1806.86 920.298,1806.95 C911.679,1807.03 904.424,1799.78 904.434,1791.08 C904.444,1782.27 911.488,1775.3 920.318,1775.37" fill="#0F0605"/>
    <path d="M938.951,1167.21 C947.891,1167.11 954.802,1173.89 954.837,1182.79 C954.873,1191.71 948.053,1198.59 939.164,1198.58 C930.469,1198.57 923.648,1191.89 923.516,1183.25 C923.379,1174.26 930.067,1167.32 938.951,1167.21" fill="#120706"/>
    <path d="M935.912,1605.24 C936.031,1614.11 929.173,1621.17 920.348,1621.25 C911.51,1621.33 904.462,1614.38 904.435,1605.57 C904.408,1596.96 911.16,1590.02 919.776,1589.8 C928.603,1589.57 935.794,1596.45 935.912,1605.24" fill="#0D0505"/>
    <path d="M554.052,1783.98 C554.05,1793.07 548.367,1799.95 541.899,1799.21 C535.455,1798.48 530.861,1790.58 532.199,1782.52 C532.362,1781.53 532.527,1780.54 532.817,1779.59 C534.517,1774.01 539.206,1770.21 543.929,1770.55 C548.494,1770.88 552.535,1775 553.639,1780.53 C553.898,1781.83 553.959,1783.17 554.052,1783.98" fill="#110806"/>
    <path d="M554.06,1598.71 C553.962,1607.59 548.714,1613.96 542.177,1613.56 C535.697,1613.16 530.887,1605.34 532.15,1597.22 C532.278,1596.4 532.439,1595.59 532.644,1594.78 C534.176,1588.8 538.703,1584.76 543.634,1584.96 C548.555,1585.16 552.767,1589.6 553.747,1595.67 C553.932,1596.81 553.987,1597.98 554.06,1598.71" fill="#120806"/>
    <path d="M565.561,1383.75 C565.266,1388.54 563.57,1393.45 558.922,1396.85 C553.567,1400.78 547.208,1399.12 544.425,1393.07 C542.028,1387.87 542.651,1382.7 545.273,1377.76 C548.079,1372.48 553.341,1369.69 557.843,1370.91 C562.472,1372.16 565.556,1376.99 565.561,1383.75" fill="#110806"/>
    <path d="M243.735,1355.58 C244.907,1355.45 246.078,1355.32 247.249,1355.2 C248.077,1355.04 248.924,1354.97 249.695,1354.59 C268.229,1351.22 286.451,1346.6 304.506,1341.27 C285.912,1348.59 266.738,1353.75 246.917,1356.53 C245.721,1356.67 244.218,1357.85 243.735,1355.58" fill="#282120"/>
    <path d="M243.735,1355.58 C244.569,1356.66 245.869,1356.17 246.917,1356.53 C241.639,1358.09 236.237,1358.46 230.762,1358.33 C234.829,1356.02 239.393,1356.35 243.735,1355.58" fill="#4B4544"/>
    <path d="M249.695,1354.59 C249.038,1355.43 248.184,1355.47 247.25,1355.2 C247.958,1354.56 248.79,1354.43 249.695,1354.59" fill="#4B4544"/>
    <path d="M769.696,763.855 C770.467,754.931 777.078,746.909 786.187,740.771 C797.861,732.906 810.954,729.009 824.997,728.428 C836.703,727.944 848.185,728.788 858.895,734.309 C868.469,739.246 876.07,745.807 877.388,757.202 C878.032,762.766 876.119,767.989 873.093,772.664 C864.818,785.446 852.135,791.74 838.033,795.267 C821.512,799.4 805.093,799.192 789.001,792.443 C777.378,787.569 769.653,777.707 769.696,763.855" fill="#F9D1D0"/>
    <path d="M442.454,785.41 C426.635,785.521 412.818,780.641 401.765,768.978 C390.845,757.455 393.096,743.912 407.129,736.687 C414.1,733.097 421.632,731.933 429.329,732.468 C444.006,733.489 457.253,738.249 467.711,749.01 C476.028,757.568 477.119,768.589 469.953,776.301 C464.481,782.188 456.938,784.68 448.942,785.381 C446.795,785.57 444.617,785.41 442.454,785.41" fill="#F9D1D0"/>
    <path d="M523.462,875.187 C519.633,888.787 513.872,901.464 507.849,914.008 C506.158,917.528 506.845,918.874 510.087,920.781 C532.291,933.844 556.894,939.83 581.688,944.998 C630.644,955.202 680.009,958.315 729.715,951.445 C778.462,944.707 823.418,928.633 861.641,896.518 C867.385,891.692 872.737,886.452 878.049,881.152 C880.418,878.789 880.922,877.395 878.113,874.996 C874.449,871.868 871.223,868.227 867.8,864.816 C866.257,863.278 865.144,861.584 867.004,859.652 C868.87,857.714 870.568,858.708 872.144,860.294 C876.606,864.786 880.944,869.42 885.631,873.667 C888.831,876.565 888.875,878.72 885.914,881.9 C874.284,894.394 861.563,905.588 847.424,915.147 C812.631,938.667 773.851,951.572 732.591,957.21 C665.632,966.359 600.017,959.452 535.689,939.236 C523.876,935.524 513.015,929.712 502.369,923.456 C498.937,921.439 498.206,919.436 500.294,915.818 C507.282,903.709 513.985,891.436 520.825,879.242 C521.612,877.839 522.579,876.536 523.462,875.187" fill="#2F201B"/>
    <path d="M686.243,524.083 C691.117,513.328 697.86,504.021 707.771,497.41 C724.402,486.318 741.295,488.809 757.965,497.216 C770.637,503.606 780.002,513.734 787.554,525.537 C797.819,541.58 804.57,558.996 807.163,577.931 C807.446,579.996 808.134,582.167 806.454,584.464 C803.958,582.437 803.004,579.593 801.733,577.018 C794.149,561.646 786.529,546.302 775.535,532.956 C769.353,525.451 762.402,518.821 753.97,513.86 C738.097,504.521 721.994,505.133 705.739,512.763 C698.951,515.95 692.533,519.763 686.243,524.083" fill="#2F201B"/>
    <path d="M518.725,677.887 C518.573,687.139 518.08,695.294 514.512,702.862 C510.249,711.902 503.238,712.791 497.275,704.764 C488.884,693.469 486.704,680.137 486.001,666.528 C485.561,658.009 486.112,649.521 489.48,641.493 C491.131,637.557 493.203,633.744 497.957,633.215 C502.724,632.685 505.701,635.959 508.039,639.465 C515.998,651.401 518.072,664.987 518.725,677.887" fill="#2F201B"/>
    <path d="M736.135,668.071 C736.111,676.13 735.814,682.633 733.754,688.875 C732.078,693.952 730.43,699.703 724.187,700.466 C717.633,701.267 714.659,695.816 711.93,691.059 C707.125,682.687 705.021,673.414 703.969,663.921 C703.068,655.783 703.015,647.616 704.717,639.551 C705.264,636.957 705.991,634.355 707.015,631.916 C711.283,621.741 718.952,620.701 725.267,629.724 C733.61,641.646 735.629,655.463 736.135,668.071" fill="#2F201B"/>
    <path d="M444.551,567.514 C444.497,551.941 446.04,536.617 452.743,522.341 C456.73,513.85 462.42,506.904 471.166,502.794 C478.542,499.327 485.742,499.61 492.64,503.723 C503.384,510.13 509.876,519.513 511.732,531.921 C511.307,532.347 510.881,532.772 510.456,533.197 C509.15,531.473 508.005,529.593 506.509,528.055 C501.727,523.138 496.439,518.878 490.05,516.149 C482.816,513.058 476.477,514.238 470.881,519.84 C465.153,525.575 461.047,532.4 457.56,539.598 C453.084,548.836 448.875,558.203 444.551,567.514" fill="#2F201B"/>
    <path d="M1118.22,687.788 C1117.98,690.16 1116.43,690.906 1114.45,691.16 C1100.95,692.885 1091.32,700.701 1083.36,711.039 C1076.91,719.419 1072.42,728.854 1068.56,738.657 C1067.18,742.171 1067.37,743.485 1071.52,744.433 C1085.17,747.549 1091.73,757.782 1088.41,770.24 C1086.37,777.891 1081.33,783.288 1074.53,787.135 C1072.59,788.235 1070.68,788.566 1069.38,786.293 C1067.96,783.823 1069.77,782.654 1071.56,781.612 C1076.14,778.946 1079.87,775.516 1081.81,770.439 C1084.92,762.259 1081.87,754.929 1073.86,751.576 C1072.18,750.875 1070.38,750.43 1068.59,750.065 C1058.74,748.051 1058.67,748.046 1062.14,738.206 C1067.51,722.972 1074.81,708.868 1086.89,697.74 C1094.42,690.799 1103.19,686.33 1113.45,684.951 C1115.99,684.609 1117.71,685.15 1118.22,687.788" fill="#2F201B"/>
    <path d="M575.699,749.836 C566.902,750.204 558.095,750.31 549.353,751.522 C538.666,753.003 535.973,756.047 536.182,766.932 C536.423,779.425 542.785,789.362 550.058,798.847 C551.171,800.298 552.494,801.592 553.553,803.078 C554.541,804.464 554.41,805.949 553.098,807.118 C551.804,808.272 550.496,808.147 549.049,807.148 C537.651,799.278 527.61,773.441 530.629,759.612 C532.617,750.504 536.597,746.691 545.772,745.68 C556.023,744.551 565.868,746.904 575.699,749.836" fill="#2E201B"/>
    <path d="M839.539,212.599 C820.3,208.709 801.193,203.936 781.332,204.36 C766.756,204.672 752.474,202.124 738.188,199.656 C723.912,197.189 709.648,194.631 695.329,192.438 C665.932,187.936 637.238,192.388 608.833,199.784 C596.457,203.006 584.124,206.388 570.387,208.491 C571.904,207.454 572.472,206.829 573.164,206.627 C602.58,198.046 631.977,189.383 662.873,187.831 C684.891,186.725 706.341,190.874 727.804,194.781 C748.634,198.573 769.448,201.616 790.757,201.748 C807.798,201.853 824.177,207.257 840.609,211.513 C840.856,212.47 840.578,212.909 839.539,212.599" fill="#060302"/>
    <path d="M1172.92,182.394 C1195.03,208.559 1213.78,236.88 1228.06,268.086 C1232.62,278.066 1236.79,288.2 1240.16,298.651 C1240.6,300.027 1241.22,301.363 1240.84,303.073 C1238.99,302.219 1239.06,300.585 1238.62,299.288 C1225.14,259.645 1204.49,224.017 1178.21,191.556 C1177.8,191.054 1177.25,190.668 1176.76,190.229 C1156.42,164.217 1131.66,143.443 1102.84,127.377 C1058.02,102.399 1010.02,86.014 960.243,74.491 C946.826,71.385 933.25,68.962 919.748,66.225 C919.826,64.291 921.102,65.128 922.058,65.228 C941.326,67.941 960.229,72.404 979.019,77.328 C1024.74,89.311 1068.77,105.523 1109.76,129.432 C1133.87,143.494 1154.58,161.504 1172.92,182.394" fill="#1E1917"/>
    <path d="M729.918,59.53 C717.57,61.175 705.198,62.657 692.879,64.492 C625.765,74.485 560.863,91.568 501.533,125.748 C466.701,145.815 436.144,170.889 413.219,204.427 C412.879,204.925 412.62,205.672 411.283,205.411 C411.101,203.378 412.733,202.108 413.713,200.718 C431.584,175.358 454.14,154.847 479.668,137.487 C520.054,110.022 564.705,92.174 611.561,79.375 C649.017,69.144 687.192,62.817 725.734,58.518 C726.387,58.446 727.058,58.54 727.721,58.557 C728.341,59.135 729.438,58.635 729.918,59.53" fill="#211B1A"/>
    <path d="M1071.73,283.385 C1044.52,264.619 1015.9,248.635 984.416,238.044 C974.287,234.636 963.951,233.793 953.455,233.383 C942.883,232.969 932.271,233.015 921.84,230.824 C944.778,230.572 967.803,228.38 990.097,236.759 C1019.9,247.959 1047.5,262.978 1072.62,282.546 C1072.84,283.372 1072.74,283.868 1071.73,283.385" fill="#080303"/>
    <path d="M923.605,154.871 C923.714,143.072 925.5,131.286 923.715,119.469 C923.141,115.671 922.553,111.904 920.971,108.385 C918.144,102.096 913.751,100.484 907.625,103.737 C900.882,107.318 895.823,112.884 891.013,118.66 C888.231,122 885.572,125.443 882.628,128.633 C885.257,120.143 901.172,104.069 909.289,101.229 C914.624,99.363 918.703,100.757 921.578,105.689 C924.589,110.853 925.395,116.659 925.741,122.481 C926.473,134.807 926.059,147.111 924.476,159.366 C922.112,158.27 923.536,156.439 923.605,154.871" fill="#252120"/>
    <path d="M1153.65,252.309 C1161.97,246.483 1169.68,239.656 1179.62,236.38 C1168.13,243.33 1157.27,251.091 1147.54,260.351 C1134.62,270.743 1123.25,282.816 1110.93,293.891 C1123.24,279.148 1137.64,266.51 1151.91,253.746 L1151.9,253.739 C1152.16,252.866 1152.99,252.689 1153.65,252.309" fill="#211E1D"/>
    <path d="M506.273,163.961 C528.224,171.053 547.391,182.304 561.679,200.849 C546.423,183.751 527.16,172.643 506.273,163.961" fill="#282423"/>
    <path d="M825.252,55.239 C840.545,55.09 855.753,56.218 870.897,58.293 C870.085,59.417 868.641,58.476 867.726,59.264 C848.421,57.818 829.111,56.454 809.741,56.234 C810.085,54.116 811.791,54.968 812.876,54.977 C817.001,55.012 821.141,54.571 825.252,55.239" fill="#352F2D"/>
    <path d="M1118.79,311.378 C1124.69,317.181 1131.31,322.224 1136.72,328.536 C1137.69,329.667 1138.67,330.797 1139.55,331.993 C1140.41,333.152 1141.96,334.642 1140.41,335.848 C1138.59,337.269 1138.03,334.899 1137.23,333.9 C1131.31,326.518 1124.9,319.616 1117.66,313.513 C1116.35,312.122 1115.04,310.732 1113.73,309.342 C1113.49,308.48 1113.63,308 1114.66,308.433 C1116.04,309.414 1117.42,310.396 1118.79,311.378" fill="#120A0A"/>
    <path d="M732.381,58.254 C746.949,56.204 761.591,55.228 776.3,55.207 C779.423,55.468 782.811,53.367 785.638,56.258 C768.607,56.649 751.629,57.945 734.651,59.251 C734.001,58.677 732.866,59.205 732.381,58.254" fill="#1E1714"/>
    <path d="M785.638,56.258 C782.683,54.507 779.346,56.15 776.3,55.207 C785.662,53.689 795.1,54.404 804.5,54.407 C811.412,54.41 818.382,53.791 825.25,55.239 C820.111,56.026 814.819,54.462 809.741,56.234 C801.707,56.242 793.673,56.25 785.638,56.258" fill="#4F4441"/>
    <path d="M922.058,65.228 C921.288,65.561 920.518,65.893 919.748,66.225 C909.629,64.673 899.51,63.121 889.39,61.569 C890.212,60.369 891.71,61.36 892.656,60.562 C902.514,61.759 912.391,62.835 922.058,65.228" fill="#443C3B"/>
    <path d="M923.605,154.871 C923.867,156.375 923.254,158.048 924.476,159.366 C923.476,167.378 922.476,175.391 921.477,183.403 C920.928,184.411 921.402,185.628 920.814,186.627 C920.726,187.536 920.638,188.445 920.55,189.354 C918.209,188.917 919.484,187.332 919.528,186.137 C919.657,184.898 919.786,183.658 919.915,182.418 C920.241,181.656 920.299,180.833 920.459,180.033 C921.507,171.646 922.556,163.259 923.605,154.871" fill="#2D2725"/>
    <path d="M919.528,186.137 C919.977,187.175 919.307,188.569 920.55,189.354 C919.765,195.663 918.949,201.965 916.534,207.975 C916.664,200.573 917.84,193.323 919.528,186.137" fill="#5B5655"/>
    <path d="M892.656,60.562 C891.805,61.665 890.474,61.218 889.39,61.569 C884.003,61.286 878.634,60.852 873.363,59.616 C873.537,58.944 874.213,58.876 874.663,58.537 C880.661,59.212 886.659,59.887 892.656,60.562" fill="#2B2524"/>
    <path d="M839.539,212.599 C839.896,212.237 840.252,211.875 840.609,211.513 C843.335,211.853 845.928,212.571 849.18,214.472 C845.138,214.647 842.282,213.934 839.539,212.599" fill="#847E7D"/>
    <path d="M1114.66,308.433 C1114.35,308.736 1114.04,309.039 1113.73,309.342 C1112.21,308.516 1110.93,307.471 1109.96,305.124 C1112.34,305.959 1113.59,307.055 1114.66,308.433" fill="#6F6B6A"/>
    <path d="M732.381,58.254 C733.138,58.586 733.894,58.919 734.651,59.251 C733.073,59.344 731.495,59.437 729.918,59.53 C729.185,59.205 728.453,58.881 727.721,58.557 C729.274,58.456 730.828,58.355 732.381,58.254" fill="#060302"/>
    <path d="M874.663,58.537 C874.23,58.897 873.796,59.256 873.363,59.616 C871.484,59.499 869.605,59.381 867.726,59.264 C868.783,58.94 869.84,58.617 870.897,58.293 C872.152,58.375 873.408,58.456 874.663,58.537" fill="#060302"/>
    <path d="M1071.73,283.385 C1072.03,283.105 1072.32,282.826 1072.62,282.546 C1073.96,283.244 1075.44,283.811 1075.79,285.986 C1073.81,285.617 1072.74,284.549 1071.73,283.385" fill="#575351"/>
    <path d="M920.814,186.627 C920.564,185.456 920.444,184.311 921.477,183.403 C921.693,184.568 921.43,185.634 920.814,186.627" fill="#5B5655"/>
    <path d="M920.459,180.033 C920.752,180.936 920.718,181.765 919.915,182.418 C919.711,181.535 919.834,180.727 920.459,180.033" fill="#5B5655"/>
    <path d="M1162.98,1203.29 C1163.34,1204.72 1162.88,1205.09 1162.25,1205.38 C1134.05,1218.36 1113.12,1239.8 1094.67,1263.97 C1076.18,1288.2 1061.62,1314.66 1051,1343.25 C1050.66,1344.18 1050.3,1345.1 1049.87,1345.99 C1049.76,1346.2 1049.32,1346.24 1048.11,1346.74 C1059.69,1311.26 1077.13,1279.86 1100.88,1252 C1118.23,1231.64 1138,1214.27 1162.98,1203.29" fill="#060404"/>
    <path d="M806.687,1166.45 C803.699,1168.25 800.472,1167.31 797.323,1167.27 C800.376,1166.22 803.536,1166.39 806.687,1166.45" fill="#2F201B"/>
    <path d="M1043.58,1561.4 C1041.83,1558.76 1042.88,1555.86 1042.81,1553.07 C1043.82,1555.78 1043.66,1558.59 1043.58,1561.4" fill="#2F201B"/>
    <path d="M1046.54,1597.4 C1044.9,1595.06 1045.84,1592.47 1045.82,1589.97 C1046.72,1592.39 1046.62,1594.89 1046.54,1597.4" fill="#2F201B"/>
    <path d="M1044.57,1573.4 C1042.89,1571.05 1043.86,1568.44 1043.83,1565.93 C1044.88,1568.34 1044.65,1570.88 1044.57,1573.4" fill="#2F201B"/>
    <path d="M1045.52,1584.4 C1043.95,1582.36 1044.86,1580.04 1044.78,1577.83 C1045.78,1579.93 1045.58,1582.17 1045.52,1584.4" fill="#2F201B"/>
    <path d="M1153.65,252.309 C1153.07,252.786 1152.49,253.262 1151.9,253.738 C1152.09,252.775 1152.04,251.531 1153.65,252.309" fill="#FEFEFE"/>
    <path d="M1042.79,1603.42 C1044.62,1606.79 1043.46,1610.38 1043.56,1613.87 C1042.64,1610.44 1042.75,1606.93 1042.79,1603.42" fill="#2F201B"/>
    <path d="M1044.78,1633.42 C1046.63,1636.78 1045.45,1640.37 1045.55,1643.86 C1044.55,1640.43 1044.67,1636.93 1044.78,1633.42" fill="#2F201B"/>
    <path d="M1040.84,1572.42 C1042.51,1575.49 1041.47,1578.78 1041.59,1581.97 C1040.59,1578.85 1040.75,1575.63 1040.84,1572.42" fill="#2F201B"/>
    <path d="M1041.8,1588.42 C1043.53,1591.45 1042.49,1594.71 1042.56,1597.88 C1041.58,1594.79 1041.79,1591.59 1041.8,1588.42" fill="#2F201B"/>
    <path d="M1043.82,1619.42 C1045.55,1622.13 1044.48,1625.09 1044.55,1627.95 C1043.43,1625.18 1043.82,1622.28 1043.82,1619.42" fill="#2F201B"/>
    <path d="M1044.54,1627.91 C1044.55,1628.52 1044.56,1629.13 1044.57,1629.74 C1044.12,1629.13 1044.09,1628.53 1044.54,1627.91" fill="#2F201B"/>
    <path d="M600.654,1197.21 C596.299,1197.26 593.124,1193.66 594.022,1189.28 C595.213,1183.47 598.75,1179.44 604.442,1177.71 C610.084,1176 614.355,1180.22 613.096,1186 C611.831,1191.81 605.893,1197.16 600.654,1197.21" fill="#FDFDFD"/>
    <path d="M1043.42,1576.49 C1043.42,1578.78 1043.42,1581.07 1043.42,1583.36 C1043.26,1583.36 1043.1,1583.36 1042.94,1583.36 C1042.94,1581.07 1042.94,1578.78 1042.94,1576.49 C1043.1,1576.49 1043.26,1576.49 1043.42,1576.49" fill="#2F201B"/>
    <path d="M1042.49,1563.67 C1042.49,1565.53 1042.49,1567.4 1042.49,1569.26 C1042.33,1569.27 1042.17,1569.27 1042.01,1569.27 C1042.01,1567.38 1042.01,1565.48 1042.01,1563.59 C1042.17,1563.62 1042.33,1563.64 1042.49,1563.67" fill="#2F201B"/>
    <path d="M928.315,1378.29 C935.283,1378.4 940.899,1384.22 940.791,1391.22 C940.684,1398.17 934.801,1403.89 927.892,1403.75 C921.012,1403.61 915.192,1397.6 915.334,1390.79 C915.479,1383.85 921.363,1378.19 928.315,1378.29" fill="#FEFEFE"/>
    <path d="M920.181,1803.85 C913.26,1803.86 907.516,1798.07 907.513,1791.08 C907.51,1784.08 913.226,1778.34 920.188,1778.34 C927.106,1778.34 932.904,1784.15 932.918,1791.09 C932.932,1797.98 927.087,1803.84 920.181,1803.85" fill="#FEFEFE"/>
    <path d="M939.106,1170.15 C946.005,1170.11 951.803,1175.79 951.907,1182.69 C952.013,1189.79 946.091,1195.75 939.018,1195.67 C932.166,1195.58 926.425,1189.72 926.455,1182.85 C926.485,1175.95 932.226,1170.18 939.106,1170.15" fill="#FEFEFE"/>
    <path d="M907.513,1605.62 C907.47,1598.7 913.267,1592.73 920.095,1592.68 C926.865,1592.62 932.88,1598.6 932.93,1605.44 C932.979,1612.3 927.115,1618.29 920.282,1618.35 C913.419,1618.41 907.556,1612.56 907.513,1605.62" fill="#FDFDFD"/>
    <path d="M551.093,1784.43 C551.142,1790.65 547.016,1796.38 542.597,1796.21 C537.971,1796.04 534.273,1789.69 535.109,1783.35 C535.827,1777.91 539.646,1773.44 543.504,1773.53 C547.462,1773.62 551.048,1778.77 551.093,1784.43" fill="#FDFDFD"/>
    <path d="M535.04,1599.83 C534.968,1593.54 538.948,1587.93 543.431,1588 C548.07,1588.06 551.674,1594.24 550.888,1600.78 C550.216,1606.37 546.585,1610.69 542.66,1610.58 C538.51,1610.46 535.107,1605.66 535.04,1599.83" fill="#FDFDFD"/>
    <path d="M562.506,1382.9 C562.64,1385.63 561.861,1388.2 560.481,1390.46 C558.541,1393.64 556.067,1396.65 551.807,1395.7 C547.326,1394.69 546.325,1390.83 546.04,1386.88 C545.846,1384.19 546.545,1381.57 547.925,1379.27 C549.945,1375.91 552.422,1372.88 556.968,1373.82 C560.232,1374.49 562.45,1378.41 562.506,1382.9" fill="#FDFDFD"/>
    <path d="M516.765,669.684 C516.705,674.285 513.468,677.597 508.983,677.645 C504.451,677.693 500.685,673.953 500.745,669.461 C500.8,665.261 504.53,661.483 508.699,661.404 C513.19,661.319 516.825,665.051 516.765,669.684" fill="#FDFDFD"/>
    <path d="M733.798,662.542 C732.456,667.218 729.05,668.96 724.651,668.027 C720.451,667.136 718.103,664.021 718.383,659.637 C718.644,655.546 721.016,652.725 725.152,652.194 C729.64,651.616 732.913,653.388 733.832,658.237 C734.319,659.676 734.369,661.111 733.798,662.542" fill="#FDFDFD"/>
    <path d="M733.798,662.542 C733.809,661.106 733.82,659.67 733.831,658.236 C735.056,659.682 734.824,661.115 733.798,662.542" fill="#FBE4DB"/>
  </g>
</svg>
